<svg width="88" height="88" viewBox="0 0 88 88" fill="none" xmlns="http://www.w3.org/2000/svg">
<rect x="0.5" y="0.5" width="87" height="87" rx="11.5" fill="url(#paint0_linear_49_6118)" fill-opacity="0.2"/>
<rect x="0.5" y="0.5" width="87" height="87" rx="11.5" stroke="#262626"/>
<path d="M57.5376 47.5155V34.7087C57.5376 32.9509 56.7842 32.3817 55.3612 31.7957C53.3857 30.9922 47.0074 28.5647 45.032 27.9955C44.5799 27.8783 44.0944 27.7444 43.6257 27.7444C43.157 27.7444 42.6715 27.8448 42.2362 27.9955C40.244 28.6819 33.8657 30.9754 31.8902 31.7957C30.484 32.3984 29.7139 32.9509 29.7139 34.7087V47.5155C29.7139 53.6261 32.9784 55.8861 42.504 61.2265C42.9393 61.461 43.3578 61.5614 43.6257 61.5614C43.8936 61.5614 44.3289 61.461 44.7473 61.2265C54.2563 55.8694 57.5376 53.6261 57.5376 47.5155ZM43.2741 58.4643C43.0732 58.414 42.8556 58.2968 42.5878 58.1294C34.8701 53.4253 32.3757 52.0691 32.3757 46.8961V35.2277C32.3757 34.6585 32.4761 34.4241 32.9449 34.2567C35.5398 33.3694 40.4282 31.5948 42.9561 30.5904C43.09 30.5401 43.1904 30.5067 43.2741 30.4899V58.4643Z" fill="#9EFF00"/>
<defs>
<linearGradient id="paint0_linear_49_6118" x1="-113.5" y1="-87" x2="88" y2="88" gradientUnits="userSpaceOnUse">
<stop offset="0.224072" stop-color="#9EFF00"/>
<stop offset="0.707836" stop-color="#9EFF00" stop-opacity="0"/>
</linearGradient>
</defs>
</svg>
