<svg width="88" height="88" viewBox="0 0 88 88" fill="none" xmlns="http://www.w3.org/2000/svg">
<rect x="0.5" y="0.5" width="87" height="87" rx="11.5" fill="url(#paint0_linear_49_6130)" fill-opacity="0.2"/>
<rect x="0.5" y="0.5" width="87" height="87" rx="11.5" stroke="#262626"/>
<path d="M26.059 61.9079C28.8213 64.6702 32.9228 64.7706 35.6349 61.5396C37.6271 59.1456 42.6661 51.0262 46.9853 46.7069C49.8649 43.8275 53.0456 45.3509 56.2431 44.0452L53.3971 33.6657C53.0456 32.3766 53.5646 31.3052 55.0546 30.9034L61.3324 29.2293C61.1316 28.6434 60.5791 27.8398 59.8927 27.1367C56.0256 23.169 49.6304 23.1188 45.8134 26.7349C40.2387 32.0418 44.4741 37.6501 40.8079 41.3163C36.1873 45.9202 29.8257 49.2683 26.4273 52.3152C23.2465 55.1445 23.2632 59.1121 26.059 61.9079ZM30.7967 59.2293C29.6583 59.2293 28.7208 58.3085 28.7208 57.1702C28.7208 56.0318 29.6583 55.0942 30.7967 55.0942C31.9351 55.0942 32.8559 56.0318 32.8559 57.1702C32.8559 58.3085 31.9351 59.2293 30.7967 59.2293ZM46.5333 36.8632C46.165 36.9637 45.847 36.7795 45.7297 36.3777C45.6293 36.0764 45.8301 35.7081 46.1817 35.6076L50.0991 34.553C50.4173 34.4692 50.7856 34.6701 50.8693 35.0217C50.9864 35.4067 50.7689 35.7416 50.4173 35.842L46.5333 36.8632ZM47.0356 38.8553C46.6673 38.9559 46.3491 38.7718 46.2153 38.3699C46.1149 38.0686 46.3324 37.7003 46.684 37.6166L50.5847 36.5451C50.9027 36.4782 51.271 36.6623 51.3714 37.0139C51.4887 37.3989 51.2543 37.7338 50.9027 37.8342L47.0356 38.8553ZM47.521 40.8476C47.1694 40.9481 46.8011 40.7639 46.7343 40.3621C46.6506 40.0273 46.8347 39.7092 47.203 39.6088L51.0869 38.5708C51.4551 38.4536 51.8067 38.6712 51.8737 39.0061C51.9574 39.3409 51.7566 39.7092 51.4384 39.7929L47.521 40.8476ZM58.0847 43.2416C58.7376 42.8565 59.4071 42.3543 60.0936 41.7013C62.203 39.7929 63.2911 36.9134 62.8559 34.871L57.7833 36.2605C57.2141 36.4112 56.7286 36.4447 56.2097 36.361L58.0847 43.2416Z" fill="#9EFF00"/>
<defs>
<linearGradient id="paint0_linear_49_6130" x1="-113.5" y1="-87" x2="88" y2="88" gradientUnits="userSpaceOnUse">
<stop offset="0.224072" stop-color="#9EFF00"/>
<stop offset="0.707836" stop-color="#9EFF00" stop-opacity="0"/>
</linearGradient>
</defs>
</svg>
