<svg width="88" height="88" viewBox="0 0 88 88" fill="none" xmlns="http://www.w3.org/2000/svg">
<rect x="0.5" y="0.5" width="87" height="87" rx="11.5" fill="url(#paint0_linear_49_6124)" fill-opacity="0.2"/>
<rect x="0.5" y="0.5" width="87" height="87" rx="11.5" stroke="#262626"/>
<path d="M25.4287 58.1182C25.4287 58.9218 25.9644 59.4408 26.768 59.4408H60.066C60.8026 59.4408 61.422 58.8548 61.422 58.1015C61.422 57.365 60.8026 56.7622 60.066 56.7622H28.5928C28.2412 56.7622 28.124 56.6451 28.124 56.2935V29.8259C28.124 29.106 27.5213 28.4866 26.7847 28.4866C26.0314 28.4866 25.4287 29.106 25.4287 29.8259V58.1182ZM27.1865 47.7054L37.951 41.4776L45.7021 48.1238L59.48 39.9207L58.4254 38.2131L45.8361 45.7131L38.1184 39.1004L27.1865 45.4118V47.7054ZM37.7334 43.7377C39.374 43.7377 40.7133 42.3984 40.7133 40.7578C40.7133 39.1171 39.374 37.7946 37.7334 37.7946C36.0928 37.7946 34.7535 39.1171 34.7535 40.7578C34.7535 42.3984 36.0928 43.7377 37.7334 43.7377ZM45.6351 49.8817C47.2759 49.8817 48.5984 48.5424 48.5984 46.9017C48.5984 45.2611 47.2759 43.9385 45.6351 43.9385C43.9946 43.9385 42.6553 45.2611 42.6553 46.9017C42.6553 48.5424 43.9946 49.8817 45.6351 49.8817ZM58.258 42.2645C59.8986 42.2645 61.2379 40.9252 61.2379 39.2846C61.2379 37.6439 59.8986 36.3047 58.258 36.3047C56.6173 36.3047 55.278 37.6439 55.278 39.2846C55.278 40.9252 56.6173 42.2645 58.258 42.2645Z" fill="#9EFF00"/>
<defs>
<linearGradient id="paint0_linear_49_6124" x1="-113.5" y1="-87" x2="88" y2="88" gradientUnits="userSpaceOnUse">
<stop offset="0.224072" stop-color="#9EFF00"/>
<stop offset="0.707836" stop-color="#9EFF00" stop-opacity="0"/>
</linearGradient>
</defs>
</svg>
