<svg width="88" height="88" viewBox="0 0 88 88" fill="none" xmlns="http://www.w3.org/2000/svg">
<rect x="0.5" y="0.5" width="87" height="87" rx="11.5" fill="url(#paint0_linear_49_6070)" fill-opacity="0.2"/>
<rect x="0.5" y="0.5" width="87" height="87" rx="11.5" stroke="#262626"/>
<path d="M30.5607 28.4393C29.9749 27.8536 29.0251 27.8536 28.4393 28.4393C27.8536 29.0251 27.8536 29.9749 28.4393 30.5607L34.8787 37H29.5C28.6716 37 28 37.6716 28 38.5C28 39.3284 28.6716 40 29.5 40H38.5C39.3284 40 40 39.3284 40 38.5V29.5C40 28.6716 39.3284 28 38.5 28C37.6716 28 37 28.6716 37 29.5V34.8787L30.5607 28.4393Z" fill="#9EFF00"/>
<path d="M51 29.5C51 28.6716 50.3284 28 49.5 28C48.6716 28 48 28.6716 48 29.5V38.5C48 39.3284 48.6716 40 49.5 40H58.5C59.3284 40 60 39.3284 60 38.5C60 37.6716 59.3284 37 58.5 37H53.1213L59.5607 30.5607C60.1464 29.9749 60.1464 29.0251 59.5607 28.4393C58.9749 27.8536 58.0251 27.8536 57.4393 28.4393L51 34.8787V29.5Z" fill="#9EFF00"/>
<path d="M30.5607 59.5607L37 53.1213V58.5C37 59.3284 37.6716 60 38.5 60C39.3284 60 40 59.3284 40 58.5V49.5C40 48.6716 39.3284 48 38.5 48H29.5C28.6716 48 28 48.6716 28 49.5C28 50.3284 28.6716 51 29.5 51H34.8787L28.4393 57.4393C27.8536 58.0251 27.8536 58.9749 28.4393 59.5607C29.0251 60.1464 29.9749 60.1464 30.5607 59.5607Z" fill="#9EFF00"/>
<path d="M51 53.1213L57.4393 59.5607C58.0251 60.1464 58.9749 60.1464 59.5607 59.5607C60.1464 58.9749 60.1464 58.0251 59.5607 57.4393L53.1213 51H58.5C59.3284 51 60 50.3284 60 49.5C60 48.6716 59.3284 48 58.5 48H49.5C48.6716 48 48 48.6716 48 49.5V58.5C48 59.3284 48.6716 60 49.5 60C50.3284 60 51 59.3284 51 58.5V53.1213Z" fill="#9EFF00"/>
<defs>
<linearGradient id="paint0_linear_49_6070" x1="-113.5" y1="-87" x2="88" y2="88" gradientUnits="userSpaceOnUse">
<stop offset="0.224072" stop-color="#9EFF00"/>
<stop offset="0.707836" stop-color="#9EFF00" stop-opacity="0"/>
</linearGradient>
</defs>
</svg>
