<svg width="88" height="88" viewBox="0 0 88 88" fill="none" xmlns="http://www.w3.org/2000/svg">
<rect x="0.5" y="0.5" width="87" height="87" rx="11.5" fill="url(#paint0_linear_49_6076)" fill-opacity="0.2"/>
<rect x="0.5" y="0.5" width="87" height="87" rx="11.5" stroke="#262626"/>
<path d="M54.625 27.75C52.8991 27.75 51.5 29.1491 51.5 30.875V57.125C51.5 58.8509 52.8991 60.25 54.625 60.25H55.875C57.6009 60.25 59 58.8509 59 57.125V30.875C59 29.1491 57.6009 27.75 55.875 27.75H54.625Z" fill="#9EFF00"/>
<path d="M40.25 38.375C40.25 36.6491 41.6491 35.25 43.375 35.25H44.625C46.3509 35.25 47.75 36.6491 47.75 38.375V57.125C47.75 58.8509 46.3509 60.25 44.625 60.25H43.375C41.6491 60.25 40.25 58.8509 40.25 57.125V38.375Z" fill="#9EFF00"/>
<path d="M29 45.875C29 44.1491 30.3991 42.75 32.125 42.75H33.375C35.1009 42.75 36.5 44.1491 36.5 45.875V57.125C36.5 58.8509 35.1009 60.25 33.375 60.25H32.125C30.3991 60.25 29 58.8509 29 57.125V45.875Z" fill="#9EFF00"/>
<defs>
<linearGradient id="paint0_linear_49_6076" x1="-113.5" y1="-87" x2="88" y2="88" gradientUnits="userSpaceOnUse">
<stop offset="0.224072" stop-color="#9EFF00"/>
<stop offset="0.707836" stop-color="#9EFF00" stop-opacity="0"/>
</linearGradient>
</defs>
</svg>
