<svg width="88" height="88" viewBox="0 0 88 88" fill="none" xmlns="http://www.w3.org/2000/svg">
<rect x="0.5" y="0.5" width="87" height="87" rx="11.5" fill="url(#paint0_linear_49_6091)" fill-opacity="0.2"/>
<rect x="0.5" y="0.5" width="87" height="87" rx="11.5" stroke="#262626"/>
<path d="M59 34.625C59 39.1123 52.2843 42.75 44 42.75C35.7157 42.75 29 39.1123 29 34.625C29 30.1377 35.7157 26.5 44 26.5C52.2843 26.5 59 30.1377 59 34.625Z" fill="#9EFF00"/>
<path d="M44 45.25C48.4753 45.25 52.6509 44.2728 55.7973 42.5685C56.9473 41.9456 58.0413 41.1739 58.9578 40.2612C58.9858 40.4638 59 40.6685 59 40.875C59 45.3623 52.2843 49 44 49C35.7157 49 29 45.3623 29 40.875C29 40.6685 29.0142 40.4638 29.0422 40.2612C29.9587 41.1739 31.0527 41.9456 32.2027 42.5685C35.3491 44.2728 39.5247 45.25 44 45.25Z" fill="#9EFF00"/>
<path d="M44 51.5C48.4753 51.5 52.6509 50.5228 55.7973 48.8185C56.9473 48.1956 58.0413 47.4239 58.9578 46.5112C58.9858 46.7138 59 46.9185 59 47.125C59 51.6123 52.2843 55.25 44 55.25C35.7157 55.25 29 51.6123 29 47.125C29 46.9185 29.0142 46.7138 29.0422 46.5112C29.9587 47.4239 31.0527 48.1956 32.2027 48.8185C35.3491 50.5228 39.5247 51.5 44 51.5Z" fill="#9EFF00"/>
<path d="M44 57.75C48.4753 57.75 52.6509 56.7728 55.7973 55.0685C56.9473 54.4456 58.0413 53.6739 58.9578 52.7612C58.9858 52.9638 59 53.1685 59 53.375C59 57.8623 52.2843 61.5 44 61.5C35.7157 61.5 29 57.8623 29 53.375C29 53.1685 29.0142 52.9638 29.0422 52.7612C29.9587 53.6739 31.0527 54.4456 32.2027 55.0685C35.3491 56.7728 39.5247 57.75 44 57.75Z" fill="#9EFF00"/>
<defs>
<linearGradient id="paint0_linear_49_6091" x1="-113.5" y1="-87" x2="88" y2="88" gradientUnits="userSpaceOnUse">
<stop offset="0.224072" stop-color="#9EFF00"/>
<stop offset="0.707836" stop-color="#9EFF00" stop-opacity="0"/>
</linearGradient>
</defs>
</svg>
