<svg width="88" height="88" viewBox="0 0 88 88" fill="none" xmlns="http://www.w3.org/2000/svg">
<rect x="0.5" y="0.5" width="87" height="87" rx="11.5" fill="url(#paint0_linear_49_6103)" fill-opacity="0.2"/>
<rect x="0.5" y="0.5" width="87" height="87" rx="11.5" stroke="#262626"/>
<g clip-path="url(#clip0_49_6103)">
<path d="M38.1352 60.1385C38.4365 60.1385 38.6542 59.9207 38.7044 59.6027C39.2401 55.1329 39.4577 55.0156 44.0113 54.279C44.3629 54.212 44.5804 54.0446 44.5804 53.7099C44.5804 53.3918 44.3629 53.1909 44.0783 53.1406C39.4912 52.2702 39.2401 52.2869 38.7044 47.817C38.6542 47.4989 38.4365 47.2813 38.1352 47.2813C37.8171 47.2813 37.5995 47.4989 37.566 47.8003C36.9801 52.337 36.8294 52.4877 32.1921 53.1406C31.9075 53.1742 31.6899 53.3918 31.6899 53.7099C31.6899 54.0279 31.9075 54.212 32.1921 54.279C36.8294 55.1663 36.9633 55.1663 37.566 59.6362C37.5995 59.9207 37.8171 60.1385 38.1352 60.1385ZM30.1832 45.5569C30.4176 45.5569 30.5515 45.3896 30.6017 45.1719C31.1709 41.9912 31.1876 41.7902 34.5526 41.221C34.7702 41.1707 34.9376 41.0369 34.9376 40.8025C34.9376 40.5681 34.7702 40.4174 34.5526 40.384C31.1876 39.798 31.1709 39.5971 30.6017 36.4163C30.5515 36.1987 30.4176 36.048 30.1832 36.048C29.9488 36.048 29.8149 36.1987 29.7647 36.4163C29.1955 39.5971 29.1787 39.798 25.8138 40.384C25.5961 40.4174 25.4287 40.5681 25.4287 40.8025C25.4287 41.0369 25.5961 41.1707 25.8138 41.221C29.1787 41.7902 29.1955 41.9912 29.7647 45.1719C29.8149 45.3896 29.9488 45.5569 30.1832 45.5569ZM39.3573 34.8427C39.5582 34.8427 39.6586 34.7255 39.6921 34.5413C40.2613 31.8628 40.2279 31.7623 43.0403 31.1931C43.2244 31.1596 43.3584 31.0424 43.3584 30.8583C43.3584 30.6574 43.2244 30.5402 43.0403 30.5067C40.2279 29.9375 40.2613 29.8371 39.6921 27.1753C39.6586 26.9911 39.5582 26.8572 39.3573 26.8572C39.1564 26.8572 39.0559 26.9911 39.0225 27.1753C38.4533 29.8371 38.4867 29.9375 35.6743 30.5067C35.4901 30.5402 35.3562 30.6574 35.3562 30.8583C35.3562 31.0424 35.4901 31.1596 35.6743 31.1931C38.4867 31.7623 38.4533 31.8628 39.0225 34.5413C39.0559 34.7255 39.1564 34.8427 39.3573 34.8427ZM53.1854 40.7523C53.4199 40.7523 53.5537 40.6016 53.604 40.384C54.1731 37.2032 54.1899 37.0023 57.5549 36.4163C57.7891 36.3828 57.9399 36.2322 57.9399 35.9978C57.9399 35.7634 57.7891 35.6295 57.5549 35.5793C54.1899 35.0101 54.1731 34.8092 53.604 31.6284C53.5537 31.4107 53.4199 31.2433 53.1854 31.2433C52.951 31.2433 52.8171 31.4107 52.7669 31.6284C52.1977 34.8092 52.181 35.0101 48.816 35.5793C48.5984 35.6295 48.431 35.7634 48.431 35.9978C48.431 36.2322 48.5984 36.3828 48.816 36.4163C52.181 37.0023 52.1977 37.2032 52.7669 40.384C52.8171 40.6016 52.951 40.7523 53.1854 40.7523ZM58.777 59.8706C59.48 60.5905 60.6854 60.5905 61.355 59.8706C62.0414 59.134 62.0414 57.9956 61.355 57.2925L45.4343 41.3215C44.7311 40.6183 43.5259 40.6183 42.8561 41.3215C42.153 42.058 42.1699 43.2132 42.8561 43.9163L58.777 59.8706ZM49.0336 48.3695L44.1284 43.4476C43.8271 43.1462 43.7267 42.8115 44.028 42.5269C44.2791 42.2589 44.6307 42.3259 44.9489 42.644L49.8707 47.5659L49.0336 48.3695Z" fill="#9EFF00"/>
</g>
<defs>
<linearGradient id="paint0_linear_49_6103" x1="-113.5" y1="-87" x2="88" y2="88" gradientUnits="userSpaceOnUse">
<stop offset="0.224072" stop-color="#9EFF00"/>
<stop offset="0.707836" stop-color="#9EFF00" stop-opacity="0"/>
</linearGradient>
<clipPath id="clip0_49_6103">
<rect width="36.4411" height="33.6329" fill="white" transform="translate(25.4287 26.8572)"/>
</clipPath>
</defs>
</svg>
