<svg width="88" height="88" viewBox="0 0 88 88" fill="none" xmlns="http://www.w3.org/2000/svg">
<rect x="0.5" y="0.5" width="87" height="87" rx="11.5" fill="url(#paint0_linear_44_5941)" fill-opacity="0.2"/>
<rect x="0.5" y="0.5" width="87" height="87" rx="11.5" stroke="#262626"/>
<g clip-path="url(#clip0_44_5941)">
<path d="M31.1264 53.866L32.4824 56.1763L44.4189 50.183L56.3551 56.1763L57.7113 53.866L45.7749 47.8727V33.7433H43.0796V47.8727L31.1264 53.866ZM26.8909 56.26C26.8909 56.9464 27.1755 57.4487 27.7782 57.7834L31.1264 59.7421C31.5617 60.01 31.863 60.0603 32.4489 59.7254L35.7135 57.8337C36.3161 57.4988 36.4333 57.2143 36.4166 56.6618L36.4333 52.7778C36.4333 52.1083 36.132 51.6227 35.5628 51.288L32.1978 49.3293C31.7626 49.0948 31.3943 49.0111 30.8251 49.3293L27.5103 51.2544C26.9411 51.5726 26.8574 51.9074 26.8574 52.3761L26.8909 56.26ZM52.3206 56.6786C52.3039 57.231 52.421 57.5156 53.0237 57.8504L56.2883 59.7421C56.8741 60.077 57.1756 60.0268 57.6107 59.7589L60.959 57.8003C61.5617 57.4654 61.8463 56.9631 61.8463 56.2768L61.8797 52.3928C61.8797 51.9241 61.796 51.5893 61.2269 51.2711L57.9121 49.346C57.3429 49.0278 56.9746 49.1116 56.5393 49.346L53.1744 51.3047C52.6051 51.6396 52.3039 52.125 52.3039 52.7946L52.3206 56.6786ZM40.1498 36.606L43.5316 38.548C44.1007 38.8661 44.6531 38.8661 45.2224 38.548L48.6041 36.606C49.0729 36.3382 49.2737 36.087 49.2737 35.4007V31.6172C49.2737 30.9475 49.0729 30.7132 48.6376 30.462L45.2558 28.5368C44.6531 28.202 44.084 28.202 43.498 28.5368L40.1164 30.462C39.6978 30.6964 39.4635 30.9475 39.4635 31.6172V35.4007C39.4635 36.087 39.7146 36.3549 40.1498 36.606Z" fill="#9EFF00"/>
</g>
<defs>
<linearGradient id="paint0_linear_44_5941" x1="-113.5" y1="-87" x2="88" y2="88" gradientUnits="userSpaceOnUse">
<stop offset="0.224072" stop-color="#9EFF00"/>
<stop offset="0.707836" stop-color="#9EFF00" stop-opacity="0"/>
</linearGradient>
<clipPath id="clip0_44_5941">
<rect width="35.0223" height="31.7579" fill="white" transform="translate(26.8574 28.2857)"/>
</clipPath>
</defs>
</svg>
