<svg width="88" height="88" viewBox="0 0 88 88" fill="none" xmlns="http://www.w3.org/2000/svg">
<rect x="0.5" y="0.5" width="87" height="87" rx="11.5" fill="url(#paint0_linear_44_5920)" fill-opacity="0.2"/>
<rect x="0.5" y="0.5" width="87" height="87" rx="11.5" stroke="#262626"/>
<g clip-path="url(#clip0_44_5920)">
<path d="M28.4635 47.2701H38.57C40.9361 47.2701 42.3149 45.9225 42.3149 43.5879V33.4813C42.3149 31.1467 40.9361 29.7991 38.57 29.7991H28.4635C26.1132 29.7991 24.75 31.131 24.75 33.4813V43.5879C24.75 45.9382 26.1132 47.2701 28.4635 47.2701ZM48.8332 47.4737H59.1435C61.5878 47.4737 62.9824 46.0949 62.9824 43.7132V33.3717C62.9824 30.9743 61.5878 29.5954 59.1435 29.5954H48.8332C46.4045 29.5954 45.0099 30.9743 45.0099 33.3717V43.7132C45.0099 46.0949 46.4045 47.4737 48.8332 47.4737ZM48.8646 44.998C47.9402 44.998 47.4857 44.5436 47.4857 43.6035V33.4657C47.4857 32.5255 47.9402 32.0711 48.8646 32.0711H59.1121C60.068 32.0711 60.5067 32.5255 60.5067 33.4657V43.6035C60.5067 44.5436 60.068 44.998 59.1121 44.998H48.8646ZM25.9408 53.1303C25.2984 53.1303 24.75 53.6944 24.75 54.3995C24.75 55.1045 25.2984 55.653 25.9408 55.653H31.0019V53.1303H25.9408ZM33.7283 58.16C35.7966 58.16 37.4889 56.4678 37.4889 54.3995C37.4889 52.3155 35.7966 50.6232 33.7283 50.6232C31.66 50.6232 29.9678 52.3155 29.9678 54.3995C29.9678 56.4678 31.66 58.16 33.7283 58.16ZM33.7283 56.2327C32.6942 56.2327 31.8951 55.4179 31.8951 54.3838C31.8951 53.3496 32.6942 52.5505 33.7283 52.5505C34.7468 52.5505 35.5616 53.3496 35.5616 54.3838C35.5616 55.4179 34.7468 56.2327 33.7283 56.2327ZM36.2197 53.1303V55.653H61.7131C62.4183 55.653 62.9824 55.1045 62.9824 54.3995C62.9824 53.6944 62.4183 53.1303 61.7131 53.1303H36.2197Z" fill="#9EFF00"/>
</g>
<defs>
<linearGradient id="paint0_linear_44_5920" x1="-113.5" y1="-87" x2="88" y2="88" gradientUnits="userSpaceOnUse">
<stop offset="0.224072" stop-color="#9EFF00"/>
<stop offset="0.707836" stop-color="#9EFF00" stop-opacity="0"/>
</linearGradient>
<clipPath id="clip0_44_5920">
<rect width="38.2324" height="29.16" fill="white" transform="translate(24.75 29)"/>
</clipPath>
</defs>
</svg>
