<svg width="88" height="88" viewBox="0 0 88 88" fill="none" xmlns="http://www.w3.org/2000/svg">
<rect x="0.5" y="0.5" width="87" height="87" rx="11.5" fill="url(#paint0_linear_44_5947)" fill-opacity="0.2"/>
<rect x="0.5" y="0.5" width="87" height="87" rx="11.5" stroke="#262626"/>
<path d="M29.7139 58.4866C29.7139 59.7924 29.9985 60.5793 31.2373 61.1819C34.1 62.4207 38.0509 63.2411 42.7886 63.2411C47.4762 63.2411 52.7496 62.538 56.533 60.6964C58.542 59.7421 59.0274 58.8549 59.0274 56.779V31.0815C59.0274 28.3694 57.8222 27.1306 55.2106 27.1306H53.6369V26.4609C53.6369 24.8036 52.7999 24 51.3266 24C50.8243 24 50.2217 24.1172 49.5019 24.3516C44.446 26.0089 39.8255 27.0636 33.8991 27.0636H32.5599C30.7518 27.0636 29.7139 28.1183 29.7139 29.7589V58.4866ZM35.657 39.7533V34.0949C35.657 33.8605 35.8244 33.6596 36.0587 33.6429C39.9594 33.4922 43.4416 32.8058 47.0074 31.5C47.2083 31.4163 47.5599 31.5 47.5599 31.9018V37.8114C47.5599 37.9621 47.4762 38.1127 47.3254 38.1629C44.2116 39.4353 40.1101 40.1551 36.0587 40.1551C35.8411 40.1551 35.657 40.0211 35.657 39.7533ZM36.5107 60.3783C43.09 60.1941 49.2004 58.3527 52.5152 55.8247C53.2853 55.2389 53.6369 54.6361 53.6369 53.163V29.8259H55.2273C55.9639 29.8259 56.3321 30.2277 56.3321 31.0815V56.5949C56.3321 57.5993 56.1814 57.9676 55.2273 58.3861C51.8957 59.8426 47.2083 60.7801 42.7886 60.7801C40.6793 60.7801 38.6871 60.663 36.5107 60.3783Z" fill="#9EFF00"/>
<defs>
<linearGradient id="paint0_linear_44_5947" x1="-113.5" y1="-87" x2="88" y2="88" gradientUnits="userSpaceOnUse">
<stop offset="0.224072" stop-color="#9EFF00"/>
<stop offset="0.707836" stop-color="#9EFF00" stop-opacity="0"/>
</linearGradient>
</defs>
</svg>
