<svg width="88" height="88" viewBox="0 0 88 88" fill="none" xmlns="http://www.w3.org/2000/svg">
<rect x="0.5" y="0.5" width="87" height="87" rx="11.5" fill="url(#paint0_linear_53_1957)" fill-opacity="0.2"/>
<rect x="0.5" y="0.5" width="87" height="87" rx="11.5" stroke="#262626"/>
<path d="M57.5386 47.5155V34.7087C57.5386 32.9509 56.7851 32.3817 55.3621 31.7957C53.3867 30.9922 47.0084 28.5647 45.033 27.9955C44.5808 27.8783 44.0954 27.7444 43.6267 27.7444C43.1579 27.7444 42.6724 27.8448 42.2372 27.9955C40.245 28.6819 33.8666 30.9754 31.8912 31.7957C30.4849 32.3984 29.7148 32.9509 29.7148 34.7087V47.5155C29.7148 53.6261 32.9794 55.8861 42.505 61.2265C42.9403 61.461 43.3588 61.5614 43.6267 61.5614C43.8945 61.5614 44.3298 61.461 44.7483 61.2265C54.2573 55.8694 57.5386 53.6261 57.5386 47.5155ZM43.2751 58.4643C43.0742 58.414 42.8566 58.2968 42.5887 58.1294C34.8711 53.4253 32.3767 52.0691 32.3767 46.8961V35.2277C32.3767 34.6585 32.4771 34.4241 32.9459 34.2567C35.5407 33.3694 40.4291 31.5948 42.957 30.5904C43.091 30.5401 43.1914 30.5067 43.2751 30.4899V58.4643Z" fill="#9EFF00"/>
<defs>
<linearGradient id="paint0_linear_53_1957" x1="-113.5" y1="-87" x2="88" y2="88" gradientUnits="userSpaceOnUse">
<stop offset="0.224072" stop-color="#9EFF00"/>
<stop offset="0.707836" stop-color="#9EFF00" stop-opacity="0"/>
</linearGradient>
</defs>
</svg>
