<svg width="88" height="88" viewBox="0 0 88 88" fill="none" xmlns="http://www.w3.org/2000/svg">
<rect x="0.5" y="0.5" width="87" height="87" rx="11.5" fill="url(#paint0_linear_53_1822)" fill-opacity="0.2"/>
<rect x="0.5" y="0.5" width="87" height="87" rx="11.5" stroke="#262626"/>
<g clip-path="url(#clip0_53_1822)">
<g clip-path="url(#clip1_53_1822)">
<path d="M28.8437 61.7603C31.4553 64.3886 34.837 64.4221 37.4151 61.844C39.4742 59.7849 41.4665 55.1309 42.9899 52.8039L47.0412 56.8719C48.28 58.1274 49.7868 58.1274 50.9586 56.9221L52.3983 55.4824C53.6205 54.2436 53.6038 52.8373 52.3482 51.5817L39.039 38.2558C37.7666 37.0002 36.3437 36.9835 35.1216 38.2056L33.6818 39.6453C32.4765 40.8507 32.4765 42.3071 33.732 43.5627L37.7834 47.6141C35.4731 49.1376 30.8358 51.1297 28.76 53.1889C26.1986 55.767 26.2153 59.1654 28.8437 61.7603ZM33.3135 59.584C32.1584 59.584 31.2376 58.6464 31.2376 57.508C31.2376 56.3697 32.1584 55.4489 33.3135 55.4489C34.4519 55.4489 35.3727 56.3697 35.3727 57.508C35.3727 58.6464 34.4519 59.584 33.3135 59.584ZM54.3403 50.8116L60.8359 44.3161C62.694 42.4579 62.6439 40.248 60.7522 38.3227L59.8983 37.4522C58.1573 39.7123 53.1852 42.3574 52.2309 41.4031C52.0803 41.2524 52.0635 40.9511 52.2812 40.7167C54.3068 38.6911 55.6293 36.7156 55.9308 33.5014L47.3258 24.8797C45.7353 23.2893 42.9732 23.8083 42.2198 26.8217C41.165 31.1074 40.2108 33.6018 39.1729 35.661L54.3403 50.8116Z" fill="#9EFF00"/>
</g>
</g>
<defs>
<linearGradient id="paint0_linear_53_1822" x1="-113.5" y1="-87" x2="88" y2="88" gradientUnits="userSpaceOnUse">
<stop offset="0.224072" stop-color="#9EFF00"/>
<stop offset="0.707836" stop-color="#9EFF00" stop-opacity="0"/>
</linearGradient>
<clipPath id="clip0_53_1822">
<rect width="40" height="40" fill="white" transform="translate(24 24)"/>
</clipPath>
<clipPath id="clip1_53_1822">
<rect width="35.3453" height="40.0127" fill="white" transform="translate(26.8555 24)"/>
</clipPath>
</defs>
</svg>
