<svg width="88" height="88" viewBox="0 0 88 88" fill="none" xmlns="http://www.w3.org/2000/svg">
<rect x="0.5" y="0.5" width="87" height="87" rx="11.5" fill="url(#paint0_linear_53_1947)" fill-opacity="0.2"/>
<rect x="0.5" y="0.5" width="87" height="87" rx="11.5" stroke="#262626"/>
<path d="M25.4297 58.1182C25.4297 58.9218 25.9654 59.4408 26.769 59.4408H60.067C60.8035 59.4408 61.423 58.8548 61.423 58.1015C61.423 57.365 60.8035 56.7622 60.067 56.7622H28.5937C28.2422 56.7622 28.125 56.6451 28.125 56.2935V29.8259C28.125 29.106 27.5223 28.4866 26.7857 28.4866C26.0324 28.4866 25.4297 29.106 25.4297 29.8259V58.1182ZM27.1875 47.7054L37.952 41.4776L45.7031 48.1238L59.481 39.9207L58.4264 38.2131L45.8371 45.7131L38.1194 39.1004L27.1875 45.4118V47.7054ZM37.7344 43.7377C39.375 43.7377 40.7143 42.3984 40.7143 40.7578C40.7143 39.1171 39.375 37.7946 37.7344 37.7946C36.0937 37.7946 34.7545 39.1171 34.7545 40.7578C34.7545 42.3984 36.0937 43.7377 37.7344 43.7377ZM45.6361 49.8817C47.2768 49.8817 48.5994 48.5424 48.5994 46.9017C48.5994 45.2611 47.2768 43.9385 45.6361 43.9385C43.9955 43.9385 42.6563 45.2611 42.6563 46.9017C42.6563 48.5424 43.9955 49.8817 45.6361 49.8817ZM58.259 42.2645C59.8995 42.2645 61.2388 40.9252 61.2388 39.2846C61.2388 37.6439 59.8995 36.3047 58.259 36.3047C56.6183 36.3047 55.279 37.6439 55.279 39.2846C55.279 40.9252 56.6183 42.2645 58.259 42.2645Z" fill="#9EFF00"/>
<defs>
<linearGradient id="paint0_linear_53_1947" x1="-113.5" y1="-87" x2="88" y2="88" gradientUnits="userSpaceOnUse">
<stop offset="0.224072" stop-color="#9EFF00"/>
<stop offset="0.707836" stop-color="#9EFF00" stop-opacity="0"/>
</linearGradient>
</defs>
</svg>
