<svg width="88" height="88" viewBox="0 0 88 88" fill="none" xmlns="http://www.w3.org/2000/svg">
<rect x="0.5" y="0.5" width="87" height="87" rx="11.5" fill="url(#paint0_linear_53_1924)" fill-opacity="0.2"/>
<rect x="0.5" y="0.5" width="87" height="87" rx="11.5" stroke="#262626"/>
<path fill-rule="evenodd" clip-rule="evenodd" d="M37.75 35.25C37.75 31.7982 40.5482 29 44 29C47.4518 29 50.25 31.7982 50.25 35.25C50.25 38.7018 47.4518 41.5 44 41.5C40.5482 41.5 37.75 38.7018 37.75 35.25Z" fill="#9EFF00"/>
<path fill-rule="evenodd" clip-rule="evenodd" d="M50.25 40.25C50.25 37.4886 52.4886 35.25 55.25 35.25C58.0114 35.25 60.25 37.4886 60.25 40.25C60.25 43.0114 58.0114 45.25 55.25 45.25C52.4886 45.25 50.25 43.0114 50.25 40.25Z" fill="#9EFF00"/>
<path fill-rule="evenodd" clip-rule="evenodd" d="M27.75 40.25C27.75 37.4886 29.9886 35.25 32.75 35.25C35.5114 35.25 37.75 37.4886 37.75 40.25C37.75 43.0114 35.5114 45.25 32.75 45.25C29.9886 45.25 27.75 43.0114 27.75 40.25Z" fill="#9EFF00"/>
<path fill-rule="evenodd" clip-rule="evenodd" d="M34.5164 49.1959C36.5131 46.074 40.0139 44 44 44C47.9866 44 51.4878 46.0745 53.4843 49.197C54.8646 51.3557 55.4617 53.9587 55.1816 56.4965C55.1378 56.8932 54.9073 57.245 54.5613 57.4436C51.449 59.2294 47.8418 60.25 44 60.25C40.1582 60.25 36.551 59.2294 33.4387 57.4436C33.0927 57.245 32.8622 56.8931 32.8184 56.4965C32.5382 53.9582 33.1357 51.3548 34.5164 49.1959Z" fill="#9EFF00"/>
<path d="M32.4705 47.7561C32.4504 47.787 32.4305 47.8179 32.4106 47.8489C30.8015 50.3648 30.0651 53.3611 30.2912 56.315C29.2778 56.1611 28.2945 55.9135 27.3507 55.5811L27.1591 55.5136C26.8096 55.3905 26.5654 55.0731 26.536 54.7037L26.5199 54.5012C26.5067 54.3357 26.5 54.1685 26.5 54C26.5 50.6419 29.1484 47.9024 32.4705 47.7561Z" fill="#9EFF00"/>
<path d="M57.7094 56.3149C57.9354 53.3617 57.1994 50.366 55.5909 47.8503C55.5707 47.8188 55.5505 47.7875 55.5301 47.7562C58.8519 47.9027 61.5 50.6421 61.5 54C61.5 54.1685 61.4933 54.3357 61.4801 54.5012L61.464 54.7037C61.4346 55.0731 61.1904 55.3905 60.8409 55.5136L60.6493 55.5811C59.7057 55.9134 58.7226 56.161 57.7094 56.3149Z" fill="#9EFF00"/>
<defs>
<linearGradient id="paint0_linear_53_1924" x1="-113.5" y1="-87" x2="88" y2="88" gradientUnits="userSpaceOnUse">
<stop offset="0.224072" stop-color="#9EFF00"/>
<stop offset="0.707836" stop-color="#9EFF00" stop-opacity="0"/>
</linearGradient>
</defs>
</svg>
