<svg width="115" height="50" viewBox="0 0 115 50" fill="none" xmlns="http://www.w3.org/2000/svg">
<g clip-path="url(#clip0_29_220)">
<path fill-rule="evenodd" clip-rule="evenodd" d="M70.7637 39.3812C64.135 44.2671 54.5271 46.8739 46.2549 46.8739C34.6559 46.8739 24.2138 42.5838 16.3139 35.4486C15.6933 34.8876 16.2494 34.1229 16.9942 34.5598C25.5197 39.5202 36.0611 42.5044 46.95 42.5044C54.2937 42.5044 62.3723 40.985 69.8005 37.832C70.9226 37.3553 71.8611 38.5669 70.7637 39.3812Z" fill="#E6E6E6"/>
<path fill-rule="evenodd" clip-rule="evenodd" d="M73.5196 36.2282C72.6755 35.1458 67.9187 35.7168 65.7836 35.97C65.1332 36.0495 65.0338 35.4834 65.6198 35.0763C69.4083 32.4099 75.6249 33.1795 76.3498 34.0733C77.0747 34.972 76.1611 41.2035 72.601 44.1777C72.0548 44.6345 71.5334 44.3912 71.7767 43.7855C72.5762 41.7894 74.3686 37.3156 73.5196 36.2282Z" fill="#E6E6E6"/>
<path fill-rule="evenodd" clip-rule="evenodd" d="M65.9347 16.2538V13.6619C65.9347 13.2696 66.2326 13.0065 66.5901 13.0065H78.1941C78.5665 13.0065 78.8644 13.2746 78.8644 13.6619V15.8814C78.8594 16.2538 78.5466 16.7404 77.9905 17.51L71.9775 26.0951C74.2119 26.0405 76.5704 26.3731 78.5963 27.5152C79.0531 27.7733 79.1772 28.1507 79.212 28.5231V31.2888C79.212 31.6662 78.7949 32.1081 78.3579 31.8797C74.7879 30.0077 70.046 29.8042 66.0985 31.8995C65.6964 32.118 65.2743 31.6811 65.2743 31.3037V28.677C65.2743 28.255 65.2793 27.535 65.7013 26.8945L72.6677 16.9042H66.605C66.2326 16.9042 65.9347 16.6411 65.9347 16.2538Z" fill="#E6E6E6"/>
<path fill-rule="evenodd" clip-rule="evenodd" d="M23.6052 32.4259H20.0749C19.7372 32.4011 19.4691 32.1478 19.4443 31.8251V13.7066C19.4443 13.3441 19.7472 13.0562 20.1245 13.0562H23.4165C23.7591 13.071 24.0322 13.3342 24.0571 13.6619V16.0304H24.1216C24.9806 13.7414 26.5943 12.6738 28.7692 12.6738C30.9787 12.6738 32.3591 13.7414 33.3522 16.0304C34.2062 13.7414 36.1476 12.6738 38.2281 12.6738C39.7078 12.6738 41.3265 13.2846 42.3146 14.655C43.4318 16.1793 43.2034 18.3939 43.2034 20.3353L43.1984 31.7705C43.1984 32.1329 42.8955 32.4259 42.5182 32.4259H38.9928C38.6402 32.4011 38.3572 32.118 38.3572 31.7705V22.1675C38.3572 21.4029 38.4267 19.4962 38.2579 18.7712C37.9948 17.5547 37.2053 17.2121 36.1824 17.2121C35.3284 17.2121 34.4346 17.7831 34.0721 18.6968C33.7097 19.6104 33.7444 21.1397 33.7444 22.1675V31.7705C33.7444 32.1329 33.4415 32.4259 33.0642 32.4259H29.5388C29.1813 32.4011 28.9032 32.118 28.9032 31.7705L28.8983 22.1675C28.8983 20.1466 29.2309 17.1724 26.7235 17.1724C24.1862 17.1724 24.2855 20.0722 24.2855 22.1675V31.7705C24.2855 32.1329 23.9826 32.4259 23.6052 32.4259Z" fill="#E6E6E6"/>
<path fill-rule="evenodd" clip-rule="evenodd" d="M88.8545 12.6738C94.0929 12.6738 96.9281 17.1724 96.9281 22.8925C96.9281 28.4189 93.795 32.8033 88.8545 32.8033C83.7104 32.8033 80.91 28.3047 80.91 22.6988C80.91 17.0582 83.7452 12.6738 88.8545 12.6738ZM88.8843 16.373C86.2825 16.373 86.1186 19.9182 86.1186 22.1278C86.1186 24.3423 86.0839 29.0693 88.8545 29.0693C91.5904 29.0693 91.7195 25.256 91.7195 22.9322C91.7195 21.4029 91.655 19.5756 91.1932 18.1258C90.7959 16.8646 90.0065 16.373 88.8843 16.373Z" fill="#E6E6E6"/>
<path fill-rule="evenodd" clip-rule="evenodd" d="M103.721 32.4259H100.205C99.8528 32.4011 99.5698 32.118 99.5698 31.7705L99.5649 13.647C99.5947 13.3143 99.8876 13.0562 100.245 13.0562H103.517C103.825 13.071 104.078 13.2796 104.148 13.5626V16.3333H104.212C105.201 13.8556 106.586 12.6738 109.024 12.6738C110.608 12.6738 112.152 13.2448 113.145 14.8089C114.069 16.2588 114.069 18.6968 114.069 20.4495V31.8549C114.029 32.1727 113.736 32.4259 113.388 32.4259H109.848C109.525 32.4011 109.257 32.1627 109.222 31.8549V22.0136C109.222 20.0324 109.451 17.1327 107.013 17.1327C106.154 17.1327 105.364 17.7087 104.972 18.5826C104.476 19.6898 104.411 20.7921 104.411 22.0136V31.7705C104.406 32.1329 104.098 32.4259 103.721 32.4259Z" fill="#E6E6E6"/>
<path fill-rule="evenodd" clip-rule="evenodd" d="M56.6843 23.7713C56.6843 25.1467 56.7191 26.2937 56.0239 27.5152C55.4628 28.5082 54.5691 29.119 53.581 29.119C52.2254 29.119 51.431 28.0862 51.431 26.5618C51.431 23.5528 54.1272 23.0066 56.6843 23.0066V23.7713ZM60.2444 32.3762C60.0111 32.5848 59.6734 32.5997 59.4103 32.4606C58.2384 31.4874 58.0249 31.0356 57.3844 30.1071C55.4479 32.0833 54.0725 32.6741 51.565 32.6741C48.5908 32.6741 46.2819 30.8419 46.2819 27.1726C46.2819 24.3076 47.8311 22.3562 50.0457 21.4028C51.9623 20.5587 54.6386 20.4098 56.6843 20.1764V19.7196C56.6843 18.8804 56.7489 17.8874 56.2523 17.1624C55.8253 16.512 55.0011 16.2439 54.2712 16.2439C52.9255 16.2439 51.7289 16.934 51.436 18.3641C51.3764 18.6818 51.143 18.9947 50.8202 19.0095L47.3991 18.6421C47.1111 18.5776 46.7884 18.3442 46.8728 17.9023C47.6573 13.7513 51.4111 12.5 54.7677 12.5C56.4857 12.5 58.73 12.9568 60.0856 14.2577C61.8036 15.8615 61.6397 18.0016 61.6397 20.3303V25.8319C61.6397 27.4854 62.3249 28.2103 62.9704 29.1041C63.1938 29.4218 63.2435 29.8042 62.9555 30.0425C62.2355 30.6433 60.9545 31.7605 60.2494 32.3861L60.2444 32.3762Z" fill="#E6E6E6"/>
<path fill-rule="evenodd" clip-rule="evenodd" d="M10.4024 23.7713C10.4024 25.1467 10.4371 26.2937 9.74197 27.5151C9.18089 28.5082 8.29209 29.1189 7.29903 29.1189C5.94349 29.1189 5.15401 28.0862 5.15401 26.5618C5.15401 23.5528 7.85018 23.0066 10.4024 23.0066V23.7713ZM13.9625 32.3762C13.7291 32.5847 13.3915 32.5996 13.1283 32.4606C11.9565 31.4874 11.748 31.0356 11.1025 30.107C9.16599 32.0832 7.79556 32.6741 5.28311 32.6741C2.31384 32.6741 0 30.8419 0 27.1725C0 24.3075 1.55415 22.3562 3.76372 21.4028C5.68033 20.5587 8.35664 20.4098 10.4024 20.1764V19.7196C10.4024 18.8804 10.4669 17.8874 9.97534 17.1624C9.54335 16.512 8.71911 16.2439 7.99417 16.2439C6.64857 16.2439 5.44696 16.934 5.15401 18.364C5.09442 18.6818 4.86105 18.9946 4.54327 19.0095L1.1172 18.6421C0.829209 18.5776 0.511428 18.3442 0.590873 17.9023C1.38036 13.7513 5.12918 12.5 8.48574 12.5C10.2037 12.5 12.4481 12.9568 13.8036 14.2577C15.5216 15.8615 15.3578 18.0016 15.3578 20.3303V25.8319C15.3578 27.4854 16.043 28.2103 16.6885 29.1041C16.9169 29.4218 16.9665 29.8042 16.6785 30.0425C15.9586 30.6433 14.6775 31.7605 13.9724 32.3861L13.9625 32.3762Z" fill="#E6E6E6"/>
</g>
<defs>
<clipPath id="clip0_29_220">
<rect width="114.583" height="50" fill="white"/>
</clipPath>
</defs>
</svg>
