<svg width="127" height="50" viewBox="0 0 127 50" fill="none" xmlns="http://www.w3.org/2000/svg">
<g clip-path="url(#clip0_29_213)">
<path d="M39.5049 33.7806L41.0342 30.2061C42.7086 31.4462 44.8927 32.1025 47.0772 32.1025C48.6791 32.1025 49.6983 31.4827 49.6983 30.5345C49.6617 27.9083 40.0511 29.9508 39.978 23.3481C39.9414 19.9924 42.9269 17.4027 47.1503 17.4027C49.6617 17.4027 52.1742 18.023 53.9577 19.4458L52.5287 23.0964C50.8877 22.0412 48.8608 21.3056 46.9316 21.3056C45.621 21.3056 44.747 21.9253 44.747 22.7283C44.7836 25.318 54.4678 23.8953 54.577 30.2061C54.577 33.6349 51.664 36.0424 47.5137 36.0424C44.4562 36.0424 41.6529 35.313 39.5044 33.7806H39.5049ZM100.399 28.9118C100.013 29.5977 99.4512 30.1685 98.7718 30.5658C98.0924 30.9631 97.3195 31.1725 96.5324 31.1726C94.0795 31.1726 92.0913 29.1802 92.0913 26.7226C92.0913 24.2649 94.0795 22.2725 96.5324 22.2725C97.3195 22.2726 98.0924 22.482 98.7718 22.8793C99.4512 23.2766 100.013 23.8474 100.399 24.5333L104.65 22.1733C103.058 19.3272 100.02 17.4027 96.5324 17.4027C91.3953 17.4027 87.2309 21.575 87.2309 26.7226C87.2309 31.8696 91.3953 36.0424 96.5324 36.0424C100.02 36.0424 103.058 34.1179 104.65 31.2718L100.399 28.9118ZM57.3358 35.6774H62.651V9.64453H57.3364L57.3358 35.6774ZM107.335 9.64453V35.6774H112.65V27.878L118.948 35.6774H125.742L117.733 26.4119L125.159 17.7661H118.657L112.65 24.9541V9.64453H107.335ZM79.0263 17.7672V19.8833C78.1528 18.424 76.0048 17.4027 73.7476 17.4027C69.0877 17.4027 65.4109 21.5248 65.4109 26.7043C65.4109 31.8837 69.0877 36.0424 73.7476 36.0424C76.0048 36.0424 78.1528 35.0211 79.0263 33.5618V35.6774H84.3415V17.7672H79.0263ZM79.0263 28.9478C78.2619 30.2244 76.66 31.1721 74.8765 31.1721C72.423 31.1721 70.4348 29.1802 70.4348 26.7226C70.4348 24.2649 72.423 22.2725 74.8765 22.2725C76.66 22.2725 78.2619 23.2572 79.0263 24.5699V28.9478Z" fill="#E6E6E6"/>
<path d="M11.436 9.06641C9.71349 9.06641 8.31734 10.4657 8.31734 12.1913C8.31693 12.6012 8.39727 13.0073 8.55377 13.3862C8.71027 13.7651 8.93987 14.1095 9.22946 14.3996C9.51905 14.6898 9.86296 14.9201 10.2416 15.0774C10.6201 15.2346 11.026 15.3158 11.436 15.3162H14.5551V12.1913C14.5558 11.3633 14.2276 10.5689 13.6426 9.98293C13.0577 9.39692 12.264 9.06724 11.436 9.06641ZM11.436 17.3994H3.11911C1.39664 17.3994 0.000488281 18.7987 0.000488281 20.5248C0.000488281 22.2505 1.39664 23.6497 3.11911 23.6497H11.4365C13.1584 23.6497 14.5551 22.2505 14.5551 20.5248C14.5551 18.7987 13.1584 17.3994 11.436 17.3994Z" fill="#E6E6E6"/>
<path d="M31.1879 20.5248C31.1879 18.7987 29.7912 17.3994 28.0688 17.3994C26.3463 17.3994 24.9502 18.7987 24.9502 20.5248V23.6497H28.0688C28.8968 23.6489 29.6905 23.3192 30.2755 22.7332C30.8604 22.1472 31.1886 21.3528 31.1879 20.5248ZM22.8711 20.5248V12.1913C22.8718 11.3633 22.5435 10.5689 21.9586 9.98293C21.3737 9.39691 20.5799 9.06724 19.7519 9.06641C18.0295 9.06641 16.6333 10.4657 16.6333 12.1913V20.5243C16.6333 22.251 18.0295 23.6503 19.7519 23.6503C20.5799 23.6494 21.3737 23.3197 21.9586 22.7337C22.5435 22.1477 22.8718 21.3534 22.8711 20.5254" fill="#E6E6E6"/>
<path d="M19.7519 40.3177C20.5799 40.3169 21.3737 39.9872 21.9586 39.4012C22.5435 38.8152 22.8718 38.0208 22.8711 37.1928C22.8718 36.3648 22.5435 35.5705 21.9586 34.9844C21.3737 34.3984 20.5799 34.0687 19.7519 34.0679H16.6333V37.1928C16.6333 38.9184 18.0295 40.3177 19.7519 40.3177ZM19.7519 31.9847H28.0693C29.7913 31.9847 31.1879 30.5854 31.1879 28.8592C31.1886 28.0313 30.8604 27.2369 30.2755 26.6509C29.6905 26.0649 28.8968 25.7352 28.0688 25.7344H19.7519C18.0295 25.7344 16.6333 27.1336 16.6333 28.8592C16.6329 29.2692 16.7132 29.6752 16.8697 30.0541C17.0262 30.433 17.2558 30.7774 17.5454 31.0676C17.835 31.3578 18.1789 31.588 18.5575 31.7453C18.9361 31.9026 19.342 31.9837 19.7519 31.9841" fill="#E6E6E6"/>
<path d="M0.000489855 28.8592C7.82537e-05 29.2692 0.0804173 29.6752 0.23692 30.0541C0.393423 30.433 0.623024 30.7774 0.912615 31.0676C1.20221 31.3578 1.54612 31.588 1.92471 31.7453C2.3033 31.9026 2.70916 31.9837 3.11911 31.9841C3.9471 31.9833 4.74086 31.6536 5.3258 31.0676C5.91073 30.4816 6.23895 29.6872 6.23826 28.8592V25.7344H3.11911C1.39664 25.7344 0.000489855 27.1336 0.000489855 28.8592ZM8.31734 28.8592V37.1923C8.31734 38.9184 9.71349 40.3177 11.436 40.3177C12.264 40.3169 13.0577 39.9872 13.6426 39.4012C14.2276 38.8152 14.5558 38.0208 14.5551 37.1928V28.8592C14.5555 28.4492 14.4752 28.0432 14.3186 27.6642C14.1621 27.2853 13.9324 26.9409 13.6428 26.6507C13.3532 26.3606 13.0092 26.1303 12.6305 25.973C12.2519 25.8158 11.846 25.7347 11.436 25.7344C9.71349 25.7344 8.31734 27.1336 8.31734 28.8592Z" fill="#E6E6E6"/>
</g>
<defs>
<clipPath id="clip0_29_213">
<rect width="126.042" height="50" fill="white"/>
</clipPath>
</defs>
</svg>
