<svg width="88" height="88" viewBox="0 0 88 88" fill="none" xmlns="http://www.w3.org/2000/svg">
<rect x="0.5" y="0.5" width="87" height="87" rx="11.5" fill="url(#paint0_linear_49_6032)" fill-opacity="0.2"/>
<rect x="0.5" y="0.5" width="87" height="87" rx="11.5" stroke="#262626"/>
<path d="M34 29C31.2386 29 29 31.2386 29 34V37.75C29 40.5114 31.2386 42.75 34 42.75H37.75C40.5114 42.75 42.75 40.5114 42.75 37.75V34C42.75 31.2386 40.5114 29 37.75 29H34Z" fill="#9EFF00"/>
<path d="M50.25 29C47.4886 29 45.25 31.2386 45.25 34V37.75C45.25 40.5114 47.4886 42.75 50.25 42.75H54C56.7614 42.75 59 40.5114 59 37.75V34C59 31.2386 56.7614 29 54 29H50.25Z" fill="#9EFF00"/>
<path d="M34 45.25C31.2386 45.25 29 47.4886 29 50.25V54C29 56.7614 31.2386 59 34 59H37.75C40.5114 59 42.75 56.7614 42.75 54V50.25C42.75 47.4886 40.5114 45.25 37.75 45.25H34Z" fill="#9EFF00"/>
<path d="M53.375 46.5C53.375 45.8096 52.8154 45.25 52.125 45.25C51.4346 45.25 50.875 45.8096 50.875 46.5V50.875H46.5C45.8096 50.875 45.25 51.4346 45.25 52.125C45.25 52.8154 45.8096 53.375 46.5 53.375H50.875V57.75C50.875 58.4404 51.4346 59 52.125 59C52.8154 59 53.375 58.4404 53.375 57.75V53.375H57.75C58.4404 53.375 59 52.8154 59 52.125C59 51.4346 58.4404 50.875 57.75 50.875H53.375V46.5Z" fill="#9EFF00"/>
<defs>
<linearGradient id="paint0_linear_49_6032" x1="-113.5" y1="-87" x2="88" y2="88" gradientUnits="userSpaceOnUse">
<stop offset="0.224072" stop-color="#9EFF00"/>
<stop offset="0.707836" stop-color="#9EFF00" stop-opacity="0"/>
</linearGradient>
</defs>
</svg>
