<svg width="88" height="88" viewBox="0 0 88 88" fill="none" xmlns="http://www.w3.org/2000/svg">
<rect x="0.5" y="0.5" width="87" height="87" rx="11.5" fill="url(#paint0_linear_49_6005)" fill-opacity="0.2"/>
<rect x="0.5" y="0.5" width="87" height="87" rx="11.5" stroke="#262626"/>
<path d="M36.2937 50.8917C35.758 50.3393 34.8037 50.3393 34.2345 50.8917L30.7859 54.3237C30.2334 54.8762 30.2334 55.8303 30.7691 56.3829C31.3216 56.9353 32.2758 56.952 32.845 56.3996L36.2937 52.9509C36.8629 52.3984 36.8629 51.461 36.2937 50.8917ZM33.2635 43.5926C33.2635 42.8059 32.5939 42.1362 31.7903 42.1362H26.8852C26.0984 42.1362 25.4287 42.8059 25.4287 43.5926C25.4287 44.3794 26.0984 45.0492 26.8852 45.0492H31.7903C32.5939 45.0492 33.2635 44.3794 33.2635 43.5926ZM36.1263 36.1429C36.6955 35.5904 36.6955 34.6529 36.1263 34.0837L32.6943 30.6351C32.1419 30.0826 31.2044 30.0659 30.6352 30.6183C30.0827 31.1708 30.0827 32.1083 30.6352 32.6775L34.0671 36.1429C34.6363 36.7121 35.5738 36.7121 36.1263 36.1429ZM43.5927 33.2299C44.3963 33.2299 45.066 32.5603 45.066 31.7735V26.8851C45.066 26.0982 44.3963 25.4286 43.5927 25.4286C42.806 25.4286 42.1363 26.0982 42.1363 26.8851V31.7735C42.1363 32.5603 42.806 33.2299 43.5927 33.2299ZM50.8751 36.3103C51.4443 36.8795 52.3986 36.8795 52.951 36.3103L56.3997 32.8616C56.9689 32.2924 56.9689 31.3549 56.3997 30.7857C55.8473 30.2333 54.9097 30.2333 54.3573 30.7857L50.8751 34.2511C50.3227 34.8203 50.3227 35.7578 50.8751 36.3103ZM53.9556 43.5926C53.9556 44.3794 54.6251 45.0492 55.412 45.0492H60.3004C61.104 45.0492 61.7736 44.3794 61.7736 43.5926C61.7736 42.8059 61.104 42.1362 60.3004 42.1362H55.412C54.6251 42.1362 53.9556 42.8059 53.9556 43.5926ZM42.2703 55.2277C42.2534 55.8806 43.0069 56.0814 43.4421 55.663L45.9867 53.1016L48.8494 60.183C48.9834 60.4844 49.3183 60.6517 49.6196 60.5179L51.2937 59.865C51.595 59.7143 51.7121 59.3627 51.5616 59.0614L48.5481 52.0972L52.1641 51.9464C52.7836 51.913 53.1017 51.3103 52.6497 50.8247L43.4923 41.433C43.0739 40.9977 42.4376 41.2322 42.4209 41.8516L42.2703 55.2277Z" fill="#9EFF00"/>
<defs>
<linearGradient id="paint0_linear_49_6005" x1="-113.5" y1="-87" x2="88" y2="88" gradientUnits="userSpaceOnUse">
<stop offset="0.224072" stop-color="#9EFF00"/>
<stop offset="0.707836" stop-color="#9EFF00" stop-opacity="0"/>
</linearGradient>
</defs>
</svg>
