<svg width="88" height="88" viewBox="0 0 88 88" fill="none" xmlns="http://www.w3.org/2000/svg">
<rect x="0.5" y="0.5" width="87" height="87" rx="11.5" fill="url(#paint0_linear_49_5984)" fill-opacity="0.2"/>
<rect x="0.5" y="0.5" width="87" height="87" rx="11.5" stroke="#262626"/>
<path d="M28.5985 46.0257C29.5695 46.0257 30.3396 45.2556 30.3396 44.3013C30.3396 43.3303 29.5695 42.5603 28.5985 42.5603C27.6275 42.5603 26.8574 43.3303 26.8574 44.3013C26.8574 45.2556 27.6275 46.0257 28.5985 46.0257ZM32.5494 34.2902C33.5204 34.2902 34.2905 33.5034 34.2905 32.5491C34.2905 31.5782 33.5204 30.8081 32.5494 30.8081C31.5952 30.8081 30.8083 31.5782 30.8083 32.5491C30.8083 33.5034 31.5952 34.2902 32.5494 34.2902ZM44.3184 30.3393C45.2726 30.3393 46.0427 29.5692 46.0427 28.5982C46.0427 27.644 45.2726 26.8572 44.3184 26.8572C43.3474 26.8572 42.5773 27.644 42.5773 28.5982C42.5773 29.5692 43.3474 30.3393 44.3184 30.3393ZM56.0706 34.2902C57.0416 34.2902 57.8117 33.5034 57.8117 32.5491C57.8117 31.5782 57.0416 30.8081 56.0706 30.8081C55.0996 30.8081 54.3296 31.5782 54.3296 32.5491C54.3296 33.5034 55.0996 34.2902 56.0706 34.2902ZM60.0383 46.0257C60.9924 46.0257 61.7626 45.2556 61.7626 44.3013C61.7626 43.3303 60.9924 42.5603 60.0383 42.5603C59.0673 42.5603 58.2971 43.3303 58.2971 44.3013C58.2971 45.2556 59.0673 46.0257 60.0383 46.0257ZM57.1756 58.3472C57.9121 58.3472 58.5483 57.7445 58.5483 57.0079C58.5483 56.2545 57.9121 55.635 57.1756 55.635H55.1331V44.5357C55.1331 38.4253 50.4121 33.7043 44.3184 33.7043C38.2079 33.7043 33.5204 38.4253 33.5204 44.5357V55.635H31.4445C30.7079 55.635 30.1219 56.2545 30.1219 57.0079C30.1219 57.7445 30.7079 58.3472 31.4445 58.3472H57.1756ZM45.7246 44.586V55.635H42.9289V44.586C42.9289 43.8159 43.5483 43.1798 44.3184 43.1798C45.0884 43.1798 45.7246 43.8159 45.7246 44.586Z" fill="#9EFF00"/>
<defs>
<linearGradient id="paint0_linear_49_5984" x1="-113.5" y1="-87" x2="88" y2="88" gradientUnits="userSpaceOnUse">
<stop offset="0.224072" stop-color="#9EFF00"/>
<stop offset="0.707836" stop-color="#9EFF00" stop-opacity="0"/>
</linearGradient>
</defs>
</svg>
