<svg width="88" height="88" viewBox="0 0 88 88" fill="none" xmlns="http://www.w3.org/2000/svg">
<rect x="0.5" y="0.5" width="87" height="87" rx="11.5" fill="url(#paint0_linear_49_6020)" fill-opacity="0.2"/>
<rect x="0.5" y="0.5" width="87" height="87" rx="11.5" stroke="#262626"/>
<g clip-path="url(#clip0_49_6020)">
<path d="M29.9945 43.0495C30.3595 43.0074 30.7386 42.9793 31.1036 42.9793C31.4967 42.9793 31.8757 43.0074 32.2548 43.0635V40.0031H29.9945V43.0495ZM29.9945 38.0798H32.2548V35.1457C32.2548 33.6857 33.0269 32.9416 34.4308 32.9416H37.3368V30.6814H34.4027C31.4686 30.6814 29.9945 32.1274 29.9945 35.0334V38.0798ZM39.2601 32.9416H45.5915V30.6814H39.2601V32.9416ZM47.5009 32.9416H53.8323V30.6814H47.5009V32.9416ZM63.0979 38.0798V35.0334C63.0979 32.1274 61.6238 30.6814 58.6897 30.6814H55.7556V32.9416H58.6617C60.0656 32.9416 60.8377 33.6857 60.8377 35.1457V38.0798H63.0979ZM63.0979 47.2049V40.0031H60.8377V47.2049H63.0979ZM58.6897 56.5267C61.6238 56.5267 63.0979 55.0808 63.0979 52.1747V49.1283H60.8377V52.0624C60.8377 53.5225 60.0656 54.2665 58.6617 54.2665H55.7556V56.5267H58.6897ZM47.5009 56.5267H53.8323V54.2665H47.5009V56.5267ZM38.9793 56.5127L45.5915 56.5267V54.2665H39.8638C39.6812 55.0668 39.3865 55.8107 38.9793 56.5127ZM31.1317 59.18C35.0345 59.18 38.2633 55.9511 38.2633 52.0483C38.2633 48.1596 35.0204 44.9167 31.1176 44.9167C27.2289 44.9167 24 48.1596 24 52.0483C24 55.9511 27.2429 59.18 31.1317 59.18ZM31.1317 57.4954C28.1133 57.4954 25.6987 55.0668 25.6987 52.0483C25.6987 49.0441 28.1133 46.6013 31.1176 46.6013C34.136 46.6013 36.5647 49.0441 36.5787 52.0483C36.5927 55.0668 34.136 57.4954 31.1317 57.4954ZM31.1176 56.2741C33.4481 56.2741 35.3433 54.3647 35.3433 52.0624C35.3433 49.746 33.434 47.8368 31.1176 47.8368C28.8012 47.8368 26.906 49.746 26.906 52.0624C26.906 54.3647 28.8153 56.2741 31.1176 56.2741Z" fill="#9EFF00"/>
</g>
<defs>
<linearGradient id="paint0_linear_49_6020" x1="-113.5" y1="-87" x2="88" y2="88" gradientUnits="userSpaceOnUse">
<stop offset="0.224072" stop-color="#9EFF00"/>
<stop offset="0.707836" stop-color="#9EFF00" stop-opacity="0"/>
</linearGradient>
<clipPath id="clip0_49_6020">
<rect width="39.0979" height="31.18" fill="white" transform="translate(24 28)"/>
</clipPath>
</defs>
</svg>
