<svg width="88" height="88" viewBox="0 0 88 88" fill="none" xmlns="http://www.w3.org/2000/svg">
<rect x="0.5" y="0.5" width="87" height="87" rx="11.5" fill="url(#paint0_linear_77_29532)" fill-opacity="0.2"/>
<rect x="0.5" y="0.5" width="87" height="87" rx="11.5" stroke="#262626"/>
<path d="M50.0483 42.5C50.9888 42.5 51.7025 41.6344 51.3229 40.7739C50.0825 37.9624 47.2704 36 44 36C43.7075 36 43.4187 36.0157 43.1344 36.0463C42.1986 36.147 41.805 37.1981 42.2756 38.0132L44.433 41.75C44.701 42.2141 45.1962 42.5 45.7321 42.5L50.0483 42.5Z" fill="#9EFF00"/>
<path d="M39.679 39.5157C39.2082 38.7004 38.1005 38.5156 37.5439 39.2748C36.5732 40.5988 36 42.2325 36 44C36 45.7676 36.5732 47.4013 37.544 48.7253C38.1006 49.4845 39.2083 49.2997 39.679 48.4844L41.835 44.7501C42.103 44.286 42.103 43.7142 41.835 43.2501L39.679 39.5157Z" fill="#9EFF00"/>
<path d="M42.2757 49.9868C41.8051 50.8019 42.1987 51.8531 43.1345 51.9537C43.4188 51.9843 43.7076 52 44 52C47.2704 52 50.0825 50.0376 51.3229 47.2261C51.7025 46.3656 50.9888 45.5 50.0483 45.5H45.7322C45.1963 45.5 44.7011 45.7859 44.4332 46.25L42.2757 49.9868Z" fill="#9EFF00"/>
<path fill-rule="evenodd" clip-rule="evenodd" d="M52.2591 32.6945L53.5488 30.4606C53.963 29.7431 53.7172 28.8257 52.9998 28.4115C52.2824 27.9973 51.365 28.2431 50.9508 28.9606L49.6623 31.1923C48.3663 30.6185 46.967 30.2357 45.5 30.0794V27.5C45.5 26.6716 44.8284 26 44 26C43.1716 26 42.5 26.6716 42.5 27.5V30.0794C41.033 30.2357 39.6337 30.6185 38.3377 31.1923L37.0492 28.9606C36.635 28.2432 35.7176 27.9973 35.0002 28.4116C34.2828 28.8258 34.037 29.7432 34.4512 30.4606L35.7409 32.6945C34.5757 33.5472 33.5472 34.5757 32.6945 35.7409L30.4602 34.4509C29.7427 34.0367 28.8253 34.2825 28.4111 35C27.9969 35.7174 28.2427 36.6348 28.9602 37.049L31.1923 38.3377C30.6185 39.6337 30.2357 41.033 30.0794 42.5H27.5C26.6716 42.5 26 43.1716 26 44C26 44.8284 26.6716 45.5 27.5 45.5H30.0794C30.2357 46.967 30.6185 48.3663 31.1923 49.6622L28.9602 50.9509C28.2427 51.3651 27.9969 52.2825 28.4111 53C28.8253 53.7174 29.7427 53.9632 30.4602 53.549L32.6945 52.259C33.5471 53.4242 34.5755 54.4526 35.7406 55.3053L34.4508 57.5394C34.0365 58.2568 34.2824 59.1742 34.9998 59.5884C35.7172 60.0027 36.6346 59.7568 37.0488 59.0394L38.3374 56.8075C39.6334 57.3814 41.0329 57.7643 42.5 57.9206V60.5C42.5 61.3284 43.1716 62 44 62C44.8284 62 45.5 61.3284 45.5 60.5V57.9206C46.9671 57.7643 48.3666 57.3814 49.6626 56.8076L50.9512 59.0394C51.3654 59.7569 52.2828 60.0027 53.0002 59.5885C53.7176 59.1743 53.9635 58.2569 53.5492 57.5394L52.2594 55.3053C53.4245 54.4527 54.4528 53.4243 55.3054 52.2592L57.5395 53.549C58.2569 53.9632 59.1743 53.7174 59.5885 53C60.0028 52.2825 59.7569 51.3651 59.0395 50.9509L56.8076 49.6624C57.3814 48.3664 57.7643 46.9671 57.9206 45.5H60.5C61.3284 45.5 62 44.8284 62 44C62 43.1716 61.3284 42.5 60.5 42.5H57.9206C57.7643 41.0329 57.3814 39.6336 56.8076 38.3376L59.0395 37.049C59.7569 36.6348 60.0028 35.7174 59.5885 35C59.1743 34.2825 58.2569 34.0367 57.5395 34.4509L55.3054 35.7408C54.4527 34.5756 53.4243 33.5472 52.2591 32.6945ZM44 33C42.0224 33 40.1667 33.5219 38.5631 34.4354C38.5425 34.4486 38.5216 34.4614 38.5002 34.4737C38.4796 34.4857 38.4587 34.497 38.4378 34.5079C36.8134 35.4618 35.4555 36.8208 34.503 38.4461C34.4935 38.4642 34.4836 38.4821 34.4733 38.5C34.4626 38.5185 34.4516 38.5367 34.4402 38.5547C33.5237 40.1602 33 42.0189 33 44C33 45.9808 33.5236 47.8394 34.4399 49.4448C34.4514 49.4629 34.4625 49.4813 34.4733 49.5C34.4837 49.518 34.4937 49.5361 34.5032 49.5543C35.4564 51.1805 36.8153 52.5401 38.441 53.494C38.4607 53.5043 38.4803 53.515 38.4998 53.5263C38.52 53.5379 38.5398 53.55 38.5593 53.5625C40.1638 54.4773 42.0208 55 44 55C45.9794 55 47.8367 54.4772 49.4414 53.5621C49.4606 53.5498 49.4802 53.5378 49.5002 53.5263C49.5195 53.5152 49.5389 53.5046 49.5584 53.4944C51.1827 52.5414 52.5407 51.1835 53.4938 49.5593C53.5042 49.5394 53.515 49.5196 53.5264 49.5C53.5381 49.4796 53.5503 49.4596 53.5628 49.44C54.4775 47.8357 55 45.9789 55 44C55 42.0209 54.4774 40.1639 53.5626 38.5595C53.5501 38.54 53.538 38.5202 53.5264 38.5C53.5151 38.4805 53.5044 38.4609 53.4941 38.4411C52.5416 36.8178 51.1846 35.4605 49.5616 34.5075C49.5408 34.4968 49.5202 34.4855 49.4998 34.4737C49.4786 34.4615 49.4579 34.4488 49.4376 34.4358C47.8338 33.522 45.9779 33 44 33Z" fill="#9EFF00"/>
<defs>
<linearGradient id="paint0_linear_77_29532" x1="-113.5" y1="-87" x2="88" y2="88" gradientUnits="userSpaceOnUse">
<stop offset="0.224072" stop-color="#9EFF00"/>
<stop offset="0.707836" stop-color="#9EFF00" stop-opacity="0"/>
</linearGradient>
</defs>
</svg>
