<svg width="88" height="88" viewBox="0 0 88 88" fill="none" xmlns="http://www.w3.org/2000/svg">
<rect x="0.5" y="0.5" width="87" height="87" rx="11.5" fill="url(#paint0_linear_49_6038)" fill-opacity="0.2"/>
<rect x="0.5" y="0.5" width="87" height="87" rx="11.5" stroke="#262626"/>
<path d="M33.375 30.25C30.9588 30.25 29 32.2088 29 34.625C29 37.0412 30.9588 39 33.375 39H54.625C57.0412 39 59 37.0412 59 34.625C59 32.2088 57.0412 30.25 54.625 30.25H33.375Z" fill="#9EFF00"/>
<path d="M30.25 42.75C29.5596 42.75 29 43.3096 29 44C29 44.6904 29.5596 45.25 30.25 45.25H57.75C58.4404 45.25 59 44.6904 59 44C59 43.3096 58.4404 42.75 57.75 42.75H30.25Z" fill="#9EFF00"/>
<path d="M29 50.25C29 49.5596 29.5596 49 30.25 49H57.75C58.4404 49 59 49.5596 59 50.25C59 50.9404 58.4404 51.5 57.75 51.5H30.25C29.5596 51.5 29 50.9404 29 50.25Z" fill="#9EFF00"/>
<path d="M30.25 55.25C29.5596 55.25 29 55.8096 29 56.5C29 57.1904 29.5596 57.75 30.25 57.75H57.75C58.4404 57.75 59 57.1904 59 56.5C59 55.8096 58.4404 55.25 57.75 55.25H30.25Z" fill="#9EFF00"/>
<defs>
<linearGradient id="paint0_linear_49_6038" x1="-113.5" y1="-87" x2="88" y2="88" gradientUnits="userSpaceOnUse">
<stop offset="0.224072" stop-color="#9EFF00"/>
<stop offset="0.707836" stop-color="#9EFF00" stop-opacity="0"/>
</linearGradient>
</defs>
</svg>
