<svg width="88" height="88" viewBox="0 0 88 88" fill="none" xmlns="http://www.w3.org/2000/svg">
<rect x="0.5" y="0.5" width="87" height="87" rx="11.5" fill="url(#paint0_linear_49_5993)" fill-opacity="0.2"/>
<rect x="0.5" y="0.5" width="87" height="87" rx="11.5" stroke="#262626"/>
<path d="M34.3511 63.1462H53.0509C55.8299 63.1462 57.6882 61.3717 57.6882 58.7266V29.865C57.6882 27.2199 55.8299 25.4286 53.0509 25.4286H34.3511C31.5721 25.4286 29.7139 27.2199 29.7139 29.865V58.7266C29.7139 61.3717 31.5721 63.1462 34.3511 63.1462ZM34.686 60.4509C33.2462 60.4509 32.4092 59.6473 32.4092 58.2746V30.317C32.4092 28.9442 33.2462 28.1239 34.686 28.1239H52.7162C54.1392 28.1239 54.9929 28.9442 54.9929 30.317V58.2746C54.9929 59.6473 54.1392 60.4509 52.7162 60.4509H34.686ZM37.2808 40.8472H50.138C51.0253 40.8472 51.6279 40.2612 51.6279 39.3237V35.7076C51.6279 34.7701 51.0253 34.1842 50.138 34.1842H37.2808C36.3936 34.1842 35.7909 34.7701 35.7909 35.7076V39.3237C35.7909 40.2612 36.3936 40.8472 37.2808 40.8472ZM37.2808 54.3572H50.138C51.0253 54.3572 51.6279 53.7544 51.6279 52.8337V49.2009C51.6279 48.2802 51.0253 47.6774 50.138 47.6774H37.2808C36.3936 47.6774 35.7909 48.2802 35.7909 49.2009V52.8337C35.7909 53.7544 36.3936 54.3572 37.2808 54.3572Z" fill="#9EFF00"/>
<defs>
<linearGradient id="paint0_linear_49_5993" x1="-113.5" y1="-87" x2="88" y2="88" gradientUnits="userSpaceOnUse">
<stop offset="0.224072" stop-color="#9EFF00"/>
<stop offset="0.707836" stop-color="#9EFF00" stop-opacity="0"/>
</linearGradient>
</defs>
</svg>
