<svg width="88" height="88" viewBox="0 0 88 88" fill="none" xmlns="http://www.w3.org/2000/svg">
<rect x="0.5" y="0.5" width="87" height="87" rx="11.5" fill="url(#paint0_linear_49_5999)" fill-opacity="0.2"/>
<rect x="0.5" y="0.5" width="87" height="87" rx="11.5" stroke="#262626"/>
<path d="M49.0905 58.4432H59.0463C61.2363 58.4432 62.7008 57.0458 62.7008 54.9499V33.4933C62.7008 31.3973 61.2363 30 59.0463 30H49.0905C46.9005 30 45.4226 31.3973 45.4226 33.4933V54.9499C45.4226 57.0458 46.9005 58.4432 49.0905 58.4432ZM49.3592 56.2801C48.2307 56.2801 47.5858 55.6754 47.5858 54.6005V33.8426C47.5858 32.7677 48.2307 32.1631 49.3592 32.1631H58.7642C59.8928 32.1631 60.5376 32.7677 60.5376 33.8426V54.6005C60.5376 55.6754 59.8928 56.2801 58.7642 56.2801H49.3592ZM27.4458 55.2455C28.1444 55.2455 28.6415 54.7619 28.6415 54.0632V52.0209C28.6415 47.023 31.6914 45.4106 35.6012 45.4106H36.4879L40.2096 45.2897V44.5373L36.5551 47.8693L35.0772 49.1323C34.7682 49.3876 34.6876 49.7234 34.6876 50.0459C34.6876 50.7043 35.1981 51.2014 35.8565 51.2014C36.1789 51.2014 36.4611 51.0804 36.7566 50.7983L42.4399 45.1285C42.7086 44.8733 42.8564 44.5642 42.8564 44.2283C42.8564 43.8924 42.7086 43.5834 42.4399 43.3281L36.7298 37.6314C36.4611 37.3627 36.1789 37.2552 35.8565 37.2552C35.1981 37.2552 34.6876 37.7389 34.6876 38.4107C34.6876 38.7331 34.7682 39.069 35.0772 39.3243L36.5551 40.5873L40.2096 43.9193V43.1669L36.4879 43.046H35.6012C30.8315 43.046 26.25 45.236 26.25 52.0209V54.0632C26.25 54.7619 26.7471 55.2455 27.4458 55.2455Z" fill="#9EFF00"/>
<defs>
<linearGradient id="paint0_linear_49_5999" x1="-113.5" y1="-87" x2="88" y2="88" gradientUnits="userSpaceOnUse">
<stop offset="0.224072" stop-color="#9EFF00"/>
<stop offset="0.707836" stop-color="#9EFF00" stop-opacity="0"/>
</linearGradient>
</defs>
</svg>
