<svg width="88" height="88" viewBox="0 0 88 88" fill="none" xmlns="http://www.w3.org/2000/svg">
<rect x="0.5" y="0.5" width="87" height="87" rx="11.5" fill="url(#paint0_linear_49_6011)" fill-opacity="0.2"/>
<rect x="0.5" y="0.5" width="87" height="87" rx="11.5" stroke="#262626"/>
<g clip-path="url(#clip0_49_6011)">
<path d="M46.1465 62.8032C52.7557 62.8032 56.4716 58.661 56.4716 51.5796V48.6556C56.4716 45.9753 55.1924 44.3457 53.7304 44.3457C53.3954 44.3457 53.2279 44.5286 53.2279 44.8331V46.1275C53.2279 46.7519 52.9081 47.0413 52.5425 47.0413C52.1465 47.0413 51.842 46.7519 51.842 46.1275V45.2748C51.842 43.7062 50.8217 42.6706 49.4662 42.6706C48.8419 42.6706 48.5677 42.9295 48.5677 43.4472V45.2138C48.5677 45.8382 48.2633 46.1275 47.8977 46.1275C47.5017 46.1275 47.1819 45.8382 47.1819 45.2138V43.5843C47.1819 41.8177 46.1617 40.9802 44.8367 40.9802C44.258 40.9802 43.9382 41.2543 43.9382 41.7569V45.2138C43.9382 45.8382 43.6336 46.1275 43.2681 46.1275C42.8722 46.1275 42.5524 45.8382 42.5524 45.2138V33.6551C42.5524 32.5282 41.8214 31.7972 40.862 31.7972C39.8416 31.7972 39.1411 32.5282 39.1411 33.6551V50.5744C39.1411 51.0008 38.867 51.214 38.6081 51.214C38.3492 51.214 38.136 51.0617 37.9533 50.6505L35.7146 45.3509C35.3796 44.5742 34.877 44.2392 34.1917 44.2392C33.1409 44.2392 32.4709 44.9549 32.4709 45.823C32.4709 46.1581 32.547 46.4473 32.6232 46.691L35.0902 54.0466C37.1918 60.2599 41.2884 62.8032 46.1465 62.8032ZM33.0953 35.6958C34.4506 35.6958 35.4862 34.6298 35.4862 33.3049C35.4862 31.9952 34.4506 30.9291 33.0953 30.9291C31.8008 30.9291 30.75 31.9952 30.75 33.3049C30.75 34.6298 31.8008 35.6958 33.0953 35.6958ZM40.862 28.7666C42.1869 28.7666 43.2529 27.7006 43.2529 26.3757C43.2529 25.0813 42.1869 24 40.862 24C39.5675 24 38.4863 25.0813 38.4863 26.3757C38.4863 27.7006 39.5675 28.7666 40.862 28.7666ZM48.7048 35.6958C50.0297 35.6958 51.0957 34.6298 51.0957 33.3049C51.0957 31.9952 50.0297 30.9291 48.7048 30.9291C47.3952 30.9291 46.3292 31.9952 46.3292 33.3049C46.3292 34.6298 47.3952 35.6958 48.7048 35.6958ZM55.7101 35.6958C57.0351 35.6958 58.1011 34.6298 58.1011 33.3049C58.1011 31.9952 57.0351 30.9291 55.7101 30.9291C54.4156 30.9291 53.3496 31.9952 53.3496 33.3049C53.3496 34.6298 54.4156 35.6958 55.7101 35.6958ZM55.7101 28.7666C57.0351 28.7666 58.1011 27.7006 58.1011 26.3757C58.1011 25.0813 57.0351 24 55.7101 24C54.4156 24 53.3496 25.0813 53.3496 26.3757C53.3496 27.7006 54.4156 28.7666 55.7101 28.7666Z" fill="#9EFF00"/>
</g>
<defs>
<linearGradient id="paint0_linear_49_6011" x1="-113.5" y1="-87" x2="88" y2="88" gradientUnits="userSpaceOnUse">
<stop offset="0.224072" stop-color="#9EFF00"/>
<stop offset="0.707836" stop-color="#9EFF00" stop-opacity="0"/>
</linearGradient>
<clipPath id="clip0_49_6011">
<rect width="40" height="40" fill="white" transform="translate(24 24)"/>
</clipPath>
</defs>
</svg>
