<svg width="88" height="88" viewBox="0 0 88 88" fill="none" xmlns="http://www.w3.org/2000/svg">
<rect x="0.5" y="0.5" width="87" height="87" rx="11.5" fill="url(#paint0_linear_49_6026)" fill-opacity="0.2"/>
<rect x="0.5" y="0.5" width="87" height="87" rx="11.5" stroke="#262626"/>
<g clip-path="url(#clip0_49_6026)">
<path d="M28.3033 55.2533H59.6258C62.3227 55.2533 63.6791 53.9758 63.6791 51.2V33.1257C63.6791 30.3656 62.3227 29.0881 59.6258 29.0881H28.3033C25.6064 29.0881 24.25 30.3656 24.25 33.1257V51.2C24.25 53.9758 25.6064 55.2533 28.3033 55.2533ZM36.0314 60.5999H51.8977C52.5916 60.5999 53.1752 60.0321 53.1752 59.3223C53.1752 58.6126 52.5916 58.0448 51.8977 58.0448H36.0314C35.3374 58.0448 34.7539 58.6126 34.7539 59.3223C34.7539 60.0321 35.3374 60.5999 36.0314 60.5999ZM44.7846 48.708C44.4377 48.708 44.2168 48.503 44.1696 48.1718C43.4757 43.4245 42.8605 42.3679 37.8767 41.8632C37.5455 41.8158 37.3404 41.5792 37.3404 41.2638C37.3404 40.9642 37.5455 40.7118 37.8767 40.6645C42.8447 40.0021 43.2706 39.1347 44.1696 34.3401C44.2484 34.0246 44.4692 33.8196 44.7846 33.8196C45.0844 33.8196 45.3208 34.0404 45.3682 34.3559C46.078 39.0558 46.7245 40.0021 51.6768 40.6645C51.9923 40.7118 52.213 40.9642 52.213 41.2638C52.213 41.5792 51.9923 41.8158 51.6768 41.8632C46.7088 42.5256 46.2672 43.4245 45.3682 48.1876C45.3051 48.503 45.0844 48.708 44.7846 48.708ZM38.3814 51.3735C38.129 51.3735 38.0029 51.2 37.9241 50.9476C37.4508 48.6291 37.6559 48.5188 35.1009 48.1402C34.8328 48.093 34.6908 47.9352 34.6908 47.6829C34.6908 47.462 34.8328 47.2728 35.0693 47.2413C37.6559 46.8155 37.4508 46.705 37.9241 44.4024C38.0029 44.15 38.1448 43.9766 38.3814 43.9766C38.618 43.9766 38.7757 44.1658 38.8387 44.4024C39.2804 46.705 39.1227 46.8155 41.7092 47.2413C41.93 47.2728 42.0877 47.462 42.0877 47.6829C42.0877 47.9037 41.93 48.093 41.7092 48.1402C39.1227 48.5188 39.2804 48.6291 38.8387 50.9949C38.7757 51.2157 38.6022 51.3735 38.3814 51.3735Z" fill="#9EFF00"/>
</g>
<defs>
<linearGradient id="paint0_linear_49_6026" x1="-113.5" y1="-87" x2="88" y2="88" gradientUnits="userSpaceOnUse">
<stop offset="0.224072" stop-color="#9EFF00"/>
<stop offset="0.707836" stop-color="#9EFF00" stop-opacity="0"/>
</linearGradient>
<clipPath id="clip0_49_6026">
<rect width="40" height="40" fill="white" transform="translate(24 24)"/>
</clipPath>
</defs>
</svg>
